<svg xmlns="http://www.w3.org/2000/svg" width="45.728" height="45.091" viewBox="0 0 45.728 45.091">
  <g id="benefit3" transform="translate(0 0)">
    <path id="Path_6674" data-name="Path 6674" d="M35.721,21.005c0-.081,0-12.075,0-12.075L17.862,0,0,8.931V20.762A22.118,22.118,0,0,0,9.864,39.2l8,5.33,6.162-4.1A12.137,12.137,0,1,0,35.721,21ZM17.862,42.811l-7.206-4.8A20.69,20.69,0,0,1,1.429,20.762V9.814L17.862,1.6,34.3,9.814V20.841c-.237-.014-.472-.036-.715-.036s-.478.022-.715.036V10.7l-15-7.5-15,7.5V20.762A19.269,19.269,0,0,0,11.45,36.818l6.413,4.273,4.674-3.114a12.108,12.108,0,0,0,.676,1.269Zm4.14-6.2-4.14,2.758-5.619-3.745c-.277-.185-.546-.38-.811-.579V28.664H10v5.187a17.849,17.849,0,0,1-2.144-2.379V27.32a2.144,2.144,0,0,1,1.621-2.078l4.846-1.215a3.568,3.568,0,0,0,2.822,3.137v2.93h1.429v-2.93A3.567,3.567,0,0,0,21.4,24.027l3.181.8A12.085,12.085,0,0,0,22,36.615ZM14.29,15.089h1.975a7.526,7.526,0,0,0,3.19-.715h.194l1.786,2.381v2.977l-2.381,1.786H16.671L14.29,19.733ZM12.92,13.66a2.8,2.8,0,0,1,1.531-2.065,7.215,7.215,0,0,1,5.017-.316l.164.237H20.72a.715.715,0,0,1,.715.715v2.144l-1.072-1.429h-1.24l-.151.075a6.093,6.093,0,0,1-2.707.639Zm7.086,8.931v1.072a2.144,2.144,0,1,1-4.287,0V22.591l.477.357h3.334Zm1.429-.028V21.519l1.429-1.072V12.231a2.143,2.143,0,0,0-2.144-2.144h-.475c-1.034-.628-3.607-.755-5.43-.185a4.446,4.446,0,0,0-3.383,4.472v.715h1.429v5.359l1.429,1.072v1.04l-5.157,1.3a3.566,3.566,0,0,0-2.7,3.464v1.929a17.844,17.844,0,0,1-2.144-8.488V11.579L17.862,4.791l13.576,6.788v9.183c0,.082,0,.164-.006.245a12.09,12.09,0,0,0-5.653,2.648ZM33.581,43.669A10.718,10.718,0,1,1,44.3,32.951,10.718,10.718,0,0,1,33.581,43.669Zm0,0" transform="translate(0)" fill="#0089ff"/>
    <path id="Path_6675" data-name="Path 6675" d="M416,136.945h8.574v1.429H416Zm0,0" transform="translate(-378.846 -124.714)" fill="#0089ff"/>
    <path id="Path_6676" data-name="Path 6676" d="M416,168.945h5.716v1.429H416Zm0,0" transform="translate(-378.846 -153.856)" fill="#0089ff"/>
    <path id="Path_6677" data-name="Path 6677" d="M416,200.945h2.858v1.429H416Zm0,0" transform="translate(-378.846 -182.998)" fill="#0089ff"/>
    <path id="Path_6678" data-name="Path 6678" d="M279.576,291.171l-2.526-2.526-4.042,4.041,6.568,6.568,11.115-11.115-4.042-4.041Zm0,6.062-4.547-4.547,2.021-2.021,2.526,2.526,7.074-7.074,2.021,2.021Zm0,0" transform="translate(-248.625 -258.724)" fill="#0089ff"/>
  </g>
</svg>
