<svg id="benefit2" xmlns="http://www.w3.org/2000/svg" width="45" height="45" viewBox="0 0 45 45">
  <path id="Path_6669" data-name="Path 6669" d="M165.436,216.36a1.984,1.984,0,0,0-1.867,1.32H159.8v-.77a.66.66,0,0,0-1.32,0v3.218a13.364,13.364,0,0,1-3.108,8.728,26.268,26.268,0,0,1-10.49,7.373,26.418,26.418,0,0,1-9.585-6.372.66.66,0,0,0-.956.91,26.96,26.96,0,0,0,2.928,2.651v5.014a1.98,1.98,0,1,0,1.32,0v-4.047a28.737,28.737,0,0,0,5.925,3.117,1.018,1.018,0,0,0,.735,0,27.591,27.591,0,0,0,11.125-7.787,14.153,14.153,0,0,0,2.914-5.61h2.231a1.98,1.98,0,1,0,0-1.32h-1.944a15.724,15.724,0,0,0,.225-2.657V219h3.766a1.98,1.98,0,1,0,1.867-2.64Zm-27.5,24.6a.66.66,0,1,1,.66-.66A.661.661,0,0,1,137.933,240.959Zm25.457-18.174a.66.66,0,1,1-.66.66A.661.661,0,0,1,163.39,222.785ZM165.436,219a.66.66,0,1,1,.66-.66A.661.661,0,0,1,165.436,219Zm0,0" transform="translate(-122.417 -197.28)" fill="#0089ff"/>
  <path id="Path_6670" data-name="Path 6670" d="M8.933,22.91V10.9a26.4,26.4,0,0,0,7.482-3.174,11.818,11.818,0,0,1,12.232,0A30.646,30.646,0,0,0,32.021,9.5l.038.016a23.4,23.4,0,0,0,4.07,1.39v5.966a.66.66,0,1,0,1.32,0V10.66a1.009,1.009,0,0,0-.774-.987A21.53,21.53,0,0,1,32.96,8.465V3.847a1.98,1.98,0,1,0-1.32,0V7.862Q30.493,7.3,29.329,6.6a13.135,13.135,0,0,0-13.6,0A24.849,24.849,0,0,1,8.387,9.673a1.009,1.009,0,0,0-.774.987v3.994H3.847a1.98,1.98,0,1,0,0,1.32H7.613v3.784H5.893a1.98,1.98,0,1,0,0,1.32h1.72V22.91a14.779,14.779,0,0,0,2.642,8.581.66.66,0,1,0,1.079-.761A13.465,13.465,0,0,1,8.933,22.91ZM32.3,1.32a.66.66,0,1,1-.66.66A.661.661,0,0,1,32.3,1.32ZM1.98,15.974a.66.66,0,1,1,.66-.66A.661.661,0,0,1,1.98,15.974Zm2.046,5.1a.66.66,0,1,1,.66-.66A.661.661,0,0,1,4.027,21.079Zm0,0" fill="#0089ff"/>
  <path id="Path_6671" data-name="Path 6671" d="M121.5,87.51a.659.659,0,0,0-.584-1.181,27.2,27.2,0,0,1-3.718,1.521,1.007,1.007,0,0,0-.7.961V99.029a12.022,12.022,0,0,0,2.782,7.851,24.773,24.773,0,0,0,9.1,6.641.927.927,0,0,0,.731,0,24.769,24.769,0,0,0,9.1-6.641,12.024,12.024,0,0,0,2.782-7.852V88.811a1.007,1.007,0,0,0-.7-.961,29.326,29.326,0,0,1-6.124-2.842,10.5,10.5,0,0,0-10.842,0l-.14.084a.659.659,0,0,0,.674,1.132l.146-.087a9.183,9.183,0,0,1,9.482,0,30.851,30.851,0,0,0,6.188,2.9v9.995a10.707,10.707,0,0,1-2.465,6.994,23.439,23.439,0,0,1-8.465,6.221,23.443,23.443,0,0,1-8.465-6.221,10.706,10.706,0,0,1-2.465-6.994V89.034A28.722,28.722,0,0,0,121.5,87.51Zm0,0" transform="translate(-106.247 -76.151)" fill="#0089ff"/>
  <path id="Path_6672" data-name="Path 6672" d="M203.561,175.5a3.3,3.3,0,0,0-3.3,3.3v1.1h-.22a1.542,1.542,0,0,0-1.54,1.54v5.281a1.542,1.542,0,0,0,1.54,1.54h7.041a1.542,1.542,0,0,0,1.54-1.54v-5.281a1.542,1.542,0,0,0-1.54-1.54h-.22v-1.1A3.3,3.3,0,0,0,203.561,175.5Zm-1.98,3.3a1.98,1.98,0,1,1,3.96,0v1.1h-3.96Zm5.721,2.64v5.281a.22.22,0,0,1-.22.22H200.04a.22.22,0,0,1-.22-.22v-5.281a.22.22,0,0,1,.22-.22h7.041A.22.22,0,0,1,207.3,181.441Zm0,0" transform="translate(-181.061 -160.084)" fill="#0089ff"/>
  <path id="Path_6673" data-name="Path 6673" d="M235.48,243a1.98,1.98,0,0,0-.66,3.847v.774a.66.66,0,0,0,1.32,0v-.774a1.98,1.98,0,0,0-.66-3.847Zm0,2.64a.66.66,0,1,1,.66-.66A.661.661,0,0,1,235.48,245.64Zm0,0" transform="translate(-212.98 -221.647)" fill="#0089ff"/>
</svg>
